<svg width="30" height="30" viewBox="0 0 30 30" fill="none" xmlns="http://www.w3.org/2000/svg">
<path d="M14.7001 2.3999H10.6501C9.57597 2.3999 8.54584 2.8424 7.78632 3.63005C7.02679 4.41771 6.6001 5.48599 6.6001 6.5999C6.6001 7.71381 7.02679 8.7821 7.78632 9.56975C8.54584 10.3574 9.57597 10.7999 10.6501 10.7999M14.7001 2.3999V10.7999M14.7001 2.3999H18.7501C19.282 2.3999 19.8086 2.50854 20.3 2.71961C20.7913 2.93068 21.2378 3.24005 21.6139 3.63005C21.99 4.02006 22.2883 4.48306 22.4918 4.99263C22.6953 5.5022 22.8001 6.04835 22.8001 6.5999C22.8001 7.15145 22.6953 7.69761 22.4918 8.20717C22.2883 8.71674 21.99 9.17974 21.6139 9.56975C21.2378 9.95976 20.7913 10.2691 20.3 10.4802C19.8086 10.6913 19.282 10.7999 18.7501 10.7999M14.7001 10.7999H10.6501M14.7001 10.7999H18.7501M14.7001 10.7999V19.1999M10.6501 10.7999C9.57597 10.7999 8.54584 11.2424 7.78632 12.0301C7.02679 12.8177 6.6001 13.886 6.6001 14.9999C6.6001 16.1138 7.02679 17.1821 7.78632 17.9698C8.54584 18.7574 9.57597 19.1999 10.6501 19.1999M18.7501 10.7999C18.2182 10.7999 17.6916 10.9085 17.2002 11.1196C16.7089 11.3307 16.2624 11.64 15.8863 12.0301C15.5102 12.4201 15.2119 12.8831 15.0084 13.3926C14.8049 13.9022 14.7001 14.4484 14.7001 14.9999C14.7001 15.5515 14.8049 16.0976 15.0084 16.6072C15.2119 17.1167 15.5102 17.5797 15.8863 17.9698C16.2624 18.3598 16.7089 18.6691 17.2002 18.8802C17.6916 19.0913 18.2182 19.1999 18.7501 19.1999C19.282 19.1999 19.8086 19.0913 20.3 18.8802C20.7913 18.6691 21.2378 18.3598 21.6139 17.9698C21.99 17.5797 22.2883 17.1167 22.4918 16.6072C22.6953 16.0976 22.8001 15.5515 22.8001 14.9999C22.8001 14.4484 22.6953 13.9022 22.4918 13.3926C22.2883 12.8831 21.99 12.4201 21.6139 12.0301C21.2378 11.64 20.7913 11.3307 20.3 11.1196C19.8086 10.9085 19.282 10.7999 18.7501 10.7999ZM10.6501 19.1999C9.57597 19.1999 8.54584 19.6424 7.78632 20.4301C7.02679 21.2177 6.6001 22.286 6.6001 23.3999C6.6001 24.5138 7.02679 25.5821 7.78632 26.3698C8.54584 27.1574 9.57597 27.5999 10.6501 27.5999C11.7242 27.5999 12.7544 27.1574 13.5139 26.3698C14.2734 25.5821 14.7001 24.5138 14.7001 23.3999V19.1999M10.6501 19.1999H14.7001" stroke="#FF6C6C" stroke-width="1.8" stroke-linecap="round" stroke-linejoin="round"/>
</svg>
