<svg width="30" height="30" viewBox="0 0 30 30" fill="none" xmlns="http://www.w3.org/2000/svg">
<path d="M14.7001 2.39999H10.6501C9.57597 2.39999 8.54584 2.84249 7.78632 3.63015C7.02679 4.4178 6.6001 5.48608 6.6001 6.59999C6.6001 7.7139 7.02679 8.78219 7.78632 9.56984C8.54584 10.3575 9.57597 10.8 10.6501 10.8M14.7001 2.39999V10.8M14.7001 2.39999H18.7501C19.282 2.39999 19.8086 2.50863 20.3 2.7197C20.7913 2.93077 21.2378 3.24014 21.6139 3.63015C21.99 4.02015 22.2883 4.48316 22.4918 4.99272C22.6953 5.50229 22.8001 6.04844 22.8001 6.59999C22.8001 7.15155 22.6953 7.6977 22.4918 8.20726C22.2883 8.71683 21.99 9.17984 21.6139 9.56984C21.2378 9.95985 20.7913 10.2692 20.3 10.4803C19.8086 10.6914 19.282 10.8 18.7501 10.8M14.7001 10.8H10.6501M14.7001 10.8H18.7501M14.7001 10.8V19.2M10.6501 10.8C9.57597 10.8 8.54584 11.2425 7.78632 12.0301C7.02679 12.8178 6.6001 13.8861 6.6001 15C6.6001 16.1139 7.02679 17.1822 7.78632 17.9698C8.54584 18.7575 9.57597 19.2 10.6501 19.2M18.7501 10.8C18.2182 10.8 17.6916 10.9086 17.2002 11.1197C16.7089 11.3308 16.2624 11.6401 15.8863 12.0301C15.5102 12.4202 15.2119 12.8832 15.0084 13.3927C14.8049 13.9023 14.7001 14.4484 14.7001 15C14.7001 15.5515 14.8049 16.0977 15.0084 16.6073C15.2119 17.1168 15.5102 17.5798 15.8863 17.9698C16.2624 18.3598 16.7089 18.6692 17.2002 18.8803C17.6916 19.0914 18.2182 19.2 18.7501 19.2C19.282 19.2 19.8086 19.0914 20.3 18.8803C20.7913 18.6692 21.2378 18.3598 21.6139 17.9698C21.99 17.5798 22.2883 17.1168 22.4918 16.6073C22.6953 16.0977 22.8001 15.5515 22.8001 15C22.8001 14.4484 22.6953 13.9023 22.4918 13.3927C22.2883 12.8832 21.99 12.4202 21.6139 12.0301C21.2378 11.6401 20.7913 11.3308 20.3 11.1197C19.8086 10.9086 19.282 10.8 18.7501 10.8ZM10.6501 19.2C9.57597 19.2 8.54584 19.6425 7.78632 20.4301C7.02679 21.2178 6.6001 22.2861 6.6001 23.4C6.6001 24.5139 7.02679 25.5822 7.78632 26.3698C8.54584 27.1575 9.57597 27.6 10.6501 27.6C11.7242 27.6 12.7544 27.1575 13.5139 26.3698C14.2734 25.5822 14.7001 24.5139 14.7001 23.4V19.2M10.6501 19.2H14.7001" stroke="#0085FF" stroke-width="1.8" stroke-linecap="round" stroke-linejoin="round"/>
</svg>
