<svg width="24" height="24" viewBox="0 0 24 24" fill="none" xmlns="http://www.w3.org/2000/svg">
<path d="M9.46154 19.1465C4.84615 20.5732 4.84615 16.7686 3 16.293M15.9231 22V18.319C15.9577 17.8654 15.8982 17.4095 15.7486 16.9814C15.599 16.5534 15.3627 16.1631 15.0554 15.8364C17.9538 15.5035 21 14.3716 21 9.17826C20.9998 7.85027 20.504 6.57321 19.6154 5.61139C20.0362 4.44954 20.0064 3.16532 19.5323 2.02548C19.5323 2.02548 18.4431 1.69258 15.9231 3.43321C13.8074 2.84237 11.5772 2.84237 9.46154 3.43321C6.94154 1.69258 5.85231 2.02548 5.85231 2.02548C5.37819 3.16532 5.34844 4.44954 5.76923 5.61139C4.87396 6.58034 4.37771 7.86895 4.38462 9.2068C4.38462 14.3621 7.43077 15.494 10.3292 15.865C10.0255 16.1883 9.79132 16.574 9.64182 16.9968C9.49233 17.4196 9.4309 17.8701 9.46154 18.319V22" stroke="#FF6C6C" stroke-width="2" stroke-linecap="round" stroke-linejoin="round"/>
</svg>
