<svg width="24" height="25" viewBox="0 0 24 25" fill="none" xmlns="http://www.w3.org/2000/svg">
<path d="M9.46154 19.6465C4.84615 21.0732 4.84615 17.2686 3 16.793M15.9231 22.5V18.819C15.9577 18.3654 15.8982 17.9095 15.7486 17.4814C15.599 17.0534 15.3627 16.6631 15.0554 16.3364C17.9538 16.0035 21 14.8716 21 9.67826C20.9998 8.35027 20.504 7.07321 19.6154 6.11139C20.0362 4.94954 20.0064 3.66532 19.5323 2.52548C19.5323 2.52548 18.4431 2.19258 15.9231 3.93321C13.8074 3.34237 11.5772 3.34237 9.46154 3.93321C6.94154 2.19258 5.85231 2.52548 5.85231 2.52548C5.37819 3.66532 5.34844 4.94954 5.76923 6.11139C4.87396 7.08034 4.37771 8.36895 4.38462 9.7068C4.38462 14.8621 7.43077 15.994 10.3292 16.365C10.0255 16.6883 9.79132 17.074 9.64182 17.4968C9.49233 17.9196 9.4309 18.3701 9.46154 18.819V22.5" stroke="#0085FF" stroke-width="2" stroke-linecap="round" stroke-linejoin="round"/>
</svg>
