<svg width="30" height="30" viewBox="0 0 30 30" fill="none" xmlns="http://www.w3.org/2000/svg">
<path d="M20.2495 12.5249V19.6641H18.4287V12.5249H20.2495Z" fill="#FF6C6C"/>
<path d="M18.3257 10.5315C18.3257 9.97444 18.7368 9.54932 19.3388 9.54932C19.9556 9.54932 20.3373 9.97444 20.352 10.5315C20.352 11.0739 19.9556 11.499 19.3242 11.499C18.7221 11.499 18.3257 11.0739 18.3257 10.5315Z" fill="#FF6C6C"/>
<path fill-rule="evenodd" clip-rule="evenodd" d="M15.8462 19.6644L14.9505 16.8644H11.8083L10.9566 19.6644H9.0918L12.2634 9.78394H14.5687L17.7844 19.6644H15.8462ZM12.8654 13.0676L12.1019 15.5011H14.6421L13.8639 13.0676C13.7095 12.5812 13.5742 12.0467 13.4504 11.5575C13.4213 11.4423 13.3927 11.3296 13.3647 11.2206H13.3353C13.2851 11.4164 13.2348 11.626 13.1832 11.8405C13.0845 12.2521 12.9813 12.6822 12.8654 13.0676Z" fill="#FF6C6C"/>
<path fill-rule="evenodd" clip-rule="evenodd" d="M22.0191 2.78325C17.3916 2.26691 12.6082 2.26691 7.98088 2.78325C5.29504 3.08294 3.12678 5.19525 2.81101 7.89064C2.25766 12.6141 2.25766 17.3858 2.81101 22.1092C3.12678 24.8045 5.29504 26.917 7.98088 27.2166C12.6082 27.733 17.3916 27.733 22.0191 27.2166C24.7048 26.917 26.8731 24.8045 27.1889 22.1092C27.7422 17.3858 27.7422 12.6141 27.1889 7.89064C26.8731 5.19525 24.7048 3.08294 22.0191 2.78325ZM8.20328 4.7699C12.6829 4.27005 17.317 4.27005 21.7965 4.7699C23.5722 4.96802 24.9944 6.36681 25.2002 8.12286C25.7355 12.6921 25.7355 17.3078 25.2002 21.877C24.9944 23.633 23.5722 25.0319 21.7965 25.2299C17.317 25.7298 12.6829 25.7298 8.20328 25.2299C6.42776 25.0319 5.00547 23.633 4.79975 21.877C4.26447 17.3078 4.26447 12.6921 4.79975 8.12286C5.00547 6.36681 6.42776 4.96802 8.20328 4.7699Z" fill="#FF6C6C"/>
</svg>
