<svg width="30" height="31" viewBox="0 0 30 31" fill="none" xmlns="http://www.w3.org/2000/svg">
<path d="M20.2497 13.0251V20.1642H18.429V13.0251H20.2497Z" fill="#0085FF"/>
<path d="M18.3257 11.0316C18.3257 10.4745 18.7368 10.0494 19.3388 10.0494C19.9556 10.0494 20.3373 10.4745 20.352 11.0316C20.352 11.574 19.9556 11.9991 19.3242 11.9991C18.7221 11.9991 18.3257 11.574 18.3257 11.0316Z" fill="#0085FF"/>
<path fill-rule="evenodd" clip-rule="evenodd" d="M15.8462 20.1644L14.9505 17.3644H11.8083L10.9566 20.1644H9.0918L12.2634 10.2839H14.5687L17.7844 20.1644H15.8462ZM12.8654 13.5676L12.1019 16.0011H14.6421L13.8639 13.5676C13.7095 13.0812 13.5742 12.5467 13.4504 12.0575C13.4213 11.9423 13.3927 11.8295 13.3647 11.7205H13.3353C13.2851 11.9164 13.2348 12.1259 13.1832 12.3404C13.0845 12.7521 12.9813 13.1822 12.8654 13.5676Z" fill="#0085FF"/>
<path fill-rule="evenodd" clip-rule="evenodd" d="M22.0191 3.28331C17.3916 2.76697 12.6082 2.76697 7.98088 3.28331C5.29504 3.583 3.12678 5.69532 2.81101 8.3907C2.25766 13.1142 2.25766 17.8858 2.81101 22.6092C3.12678 25.3046 5.29504 27.417 7.98088 27.7166C12.6082 28.233 17.3916 28.233 22.0191 27.7166C24.7048 27.417 26.8731 25.3046 27.1889 22.6092C27.7422 17.8858 27.7422 13.1142 27.1889 8.3907C26.8731 5.69532 24.7048 3.583 22.0191 3.28331ZM8.20328 5.26996C12.6829 4.77011 17.317 4.77011 21.7965 5.26996C23.5722 5.46808 24.9944 6.86688 25.2002 8.62292C25.7355 13.1921 25.7355 17.8079 25.2002 22.3771C24.9944 24.133 23.5722 25.5319 21.7965 25.73C17.317 26.2299 12.6829 26.2299 8.20328 25.73C6.42776 25.5319 5.00547 24.133 4.79975 22.3771C4.26447 17.8079 4.26447 13.1921 4.79975 8.62292C5.00547 6.86688 6.42776 5.46808 8.20328 5.26996Z" fill="#0085FF"/>
</svg>
