<svg width="24" height="25" viewBox="0 0 24 25" fill="none" xmlns="http://www.w3.org/2000/svg">
<path d="M17 2.5H7C4.23858 2.5 2 4.73858 2 7.5V17.5C2 20.2614 4.23858 22.5 7 22.5H17C19.7614 22.5 22 20.2614 22 17.5V7.5C22 4.73858 19.7614 2.5 17 2.5Z" stroke="#0085FF" stroke-width="2" stroke-linecap="round" stroke-linejoin="round"/>
<path d="M16 11.87C16.1234 12.7022 15.9812 13.5522 15.5937 14.299C15.2062 15.0458 14.5931 15.6514 13.8416 16.0297C13.0901 16.4079 12.2384 16.5396 11.4077 16.4059C10.5771 16.2723 9.80971 15.8801 9.21479 15.2852C8.61987 14.6902 8.22768 13.9229 8.09402 13.0922C7.96035 12.2615 8.09202 11.4099 8.47028 10.6584C8.84854 9.90685 9.45414 9.29374 10.2009 8.90624C10.9477 8.51874 11.7977 8.37658 12.63 8.5C13.4789 8.62588 14.2648 9.02146 14.8716 9.6283C15.4785 10.2351 15.8741 11.0211 16 11.87Z" stroke="#0085FF" stroke-width="2" stroke-linecap="round" stroke-linejoin="round"/>
<path d="M17.5 7H17.51" stroke="#0085FF" stroke-width="2" stroke-linecap="round" stroke-linejoin="round"/>
</svg>
