<svg width="30" height="30" viewBox="0 0 30 30" fill="none" xmlns="http://www.w3.org/2000/svg">
<path d="M7.13865 6.81803C7.91634 7.45433 8.20824 7.40603 9.6698 7.30733L23.4462 6.47468C23.7381 6.47468 23.4952 6.18068 23.3982 6.13238L21.1089 4.46604C20.6711 4.12374 20.0863 3.73104 18.9666 3.82869L5.62809 4.80939C5.1423 4.85769 5.04431 5.10339 5.23821 5.29869L7.13865 6.81803ZM7.96534 10.052V24.6512C7.96534 25.4355 8.35418 25.7295 9.23091 25.6802L24.3709 24.7982C25.2476 24.7499 25.3456 24.2102 25.3456 23.5728V9.07133C25.3456 8.43503 25.1027 8.09168 24.5658 8.13998L8.74407 9.07133C8.16028 9.12068 7.96534 9.41573 7.96534 10.052ZM22.9114 10.8343C23.0083 11.2753 22.9114 11.7163 22.4735 11.7667L21.7438 11.9137V22.6909C21.11 23.0342 20.5262 23.2305 20.0394 23.2305C19.2596 23.2305 19.0646 22.9848 18.4808 22.2509L13.7094 14.7056V22.0052L15.2189 22.3496C15.2189 22.3496 15.2189 23.2316 14.0013 23.2316L10.6424 23.4269C10.5455 23.2316 10.6424 22.7413 10.9833 22.6436L11.859 22.399V12.7463L10.6445 12.6476C10.5465 12.2066 10.7905 11.5703 11.4712 11.521L15.074 11.2763L20.0404 18.9193V12.1573L18.7738 12.0113C18.6768 11.4716 19.0657 11.08 19.5525 11.0317L22.9114 10.8343ZM4.50847 3.48639L18.3839 2.45739C20.0873 2.31039 20.5262 2.40804 21.5968 3.19239L26.0263 6.32768C26.7561 6.86633 27 7.01333 27 7.60133V24.7982C27 25.8755 26.6112 26.5139 25.2486 26.6105L9.13396 27.5912C8.11233 27.6405 7.62445 27.4935 7.08861 26.8068L3.82669 22.5438C3.2429 21.7595 3 21.1726 3 20.4859V5.19999C3 4.31904 3.38989 3.58299 4.50847 3.48639Z" fill="#FF6C6C"/>
</svg>
