<svg width="30" height="31" viewBox="0 0 30 31" fill="none" xmlns="http://www.w3.org/2000/svg">
<path d="M7.13865 7.31812C7.91634 7.95442 8.20824 7.90612 9.66979 7.80742L23.4462 6.97478C23.7381 6.97478 23.4952 6.68078 23.3982 6.63248L21.1089 4.96613C20.6711 4.62383 20.0863 4.23113 18.9666 4.32878L5.62809 5.30948C5.1423 5.35778 5.04431 5.60348 5.23821 5.79878L7.13865 7.31812ZM7.96534 10.5521V25.1513C7.96534 25.9356 8.35418 26.2296 9.23091 26.1803L24.3709 25.2983C25.2476 25.25 25.3456 24.7103 25.3456 24.0729V9.57142C25.3456 8.93512 25.1027 8.59177 24.5658 8.64007L8.74407 9.57142C8.16028 9.62077 7.96534 9.91582 7.96534 10.5521ZM22.9114 11.3344C23.0083 11.7754 22.9114 12.2164 22.4735 12.2668L21.7438 12.4138V23.1909C21.11 23.5343 20.5262 23.7306 20.0394 23.7306C19.2596 23.7306 19.0646 23.4849 18.4808 22.751L13.7094 15.2057V22.5053L15.2189 22.8497C15.2189 22.8497 15.2189 23.7317 14.0013 23.7317L10.6424 23.927C10.5455 23.7317 10.6424 23.2413 10.9833 23.1437L11.859 22.899V13.2464L10.6445 13.1477C10.5465 12.7067 10.7905 12.0704 11.4712 12.0211L15.074 11.7764L20.0404 19.4193V12.6574L18.7738 12.5114C18.6768 11.9717 19.0657 11.5801 19.5525 11.5318L22.9114 11.3344ZM4.50847 3.98648L18.3839 2.95748C20.0873 2.81048 20.5262 2.90813 21.5968 3.69248L26.0263 6.82778C26.7561 7.36642 27 7.51342 27 8.10142V25.2983C27 26.3756 26.6112 27.014 25.2486 27.1106L9.13396 28.0913C8.11233 28.1406 7.62445 27.9936 7.08861 27.3069L3.82669 23.0439C3.2429 22.2596 3 21.6726 3 20.9859V5.70008C3 4.81913 3.38989 4.08308 4.50847 3.98648Z" fill="#0085FF"/>
</svg>
