<svg width="24" height="25" viewBox="0 0 24 25" fill="none" xmlns="http://www.w3.org/2000/svg">
<path d="M20.9994 16.9765V19.6862C21.0005 19.9377 20.9488 20.1867 20.8479 20.4172C20.7469 20.6477 20.5988 20.8546 20.413 21.0247C20.2273 21.1947 20.008 21.3242 19.7693 21.4048C19.5305 21.4854 19.2775 21.5153 19.0265 21.4927C16.2415 21.1907 13.5664 20.2409 11.216 18.7197C9.02929 17.3329 7.17534 15.4827 5.7858 13.3003C4.25627 10.9439 3.30442 8.26107 3.00735 5.46915C2.98473 5.21938 3.01447 4.96764 3.09468 4.72996C3.17489 4.49229 3.30381 4.27389 3.47323 4.08866C3.64265 3.90343 3.84885 3.75544 4.07872 3.65411C4.30858 3.55278 4.55707 3.50032 4.80837 3.50009H7.52347C7.96269 3.49577 8.3885 3.651 8.72152 3.93683C9.05455 4.22267 9.27207 4.61961 9.33354 5.05366C9.44814 5.92084 9.66067 6.77229 9.96707 7.59177C10.0888 7.91507 10.1152 8.26642 10.043 8.6042C9.97082 8.94198 9.80313 9.25203 9.5598 9.49761L8.41041 10.6447C9.69877 12.906 11.5748 14.7784 13.8406 16.0642L14.99 14.9171C15.2361 14.6742 15.5467 14.5069 15.8852 14.4348C16.2236 14.3628 16.5757 14.3891 16.8996 14.5106C17.7207 14.8164 18.5739 15.0285 19.4428 15.1429C19.8824 15.2048 20.2839 15.4258 20.5709 15.7639C20.858 16.1019 21.0105 16.5335 20.9994 16.9765Z" stroke="#0085FF" stroke-width="2" stroke-linecap="round" stroke-linejoin="round"/>
</svg>
