<svg width="30" height="30" viewBox="0 0 30 30" fill="none" xmlns="http://www.w3.org/2000/svg">
<path d="M18.7799 26.5499H11.2199C8.17346 26.5499 6.31411 25.9342 5.18986 24.8099C4.06562 23.6857 3.4499 21.8263 3.4499 18.7799V11.2199C3.4499 8.17346 4.06562 6.31411 5.18986 5.18986C6.31411 4.06562 8.17346 3.4499 11.2199 3.4499H18.7799C21.8263 3.4499 23.6857 4.06562 24.8099 5.18986C25.9342 6.31411 26.5499 8.17346 26.5499 11.2199V18.7799C26.5499 21.8263 25.9342 23.6857 24.8099 24.8099C23.6857 25.9342 21.8263 26.5499 18.7799 26.5499Z" stroke="#FF6C6C" stroke-width="2.1" stroke-linecap="round" stroke-linejoin="round"/>
<path d="M9.33008 20.04V9.95996H11.8501C13.2361 9.95996 14.3701 11.094 14.3701 12.48C14.3701 13.866 13.2361 15 11.8501 15H9.33008" stroke="#FF6C6C" stroke-width="1.62" stroke-miterlimit="10" stroke-linecap="round" stroke-linejoin="round"/>
<path d="M20.67 13.74H19.032C18.15 13.74 17.52 14.496 17.52 15.252C17.52 16.134 18.276 16.764 19.032 16.764C19.914 16.764 20.544 17.52 20.544 18.276C20.544 19.158 19.788 19.788 19.032 19.788H17.52" stroke="#FF6C6C" stroke-width="1.62" stroke-miterlimit="10" stroke-linecap="round" stroke-linejoin="round"/>
</svg>
