<svg width="30" height="31" viewBox="0 0 30 31" fill="none" xmlns="http://www.w3.org/2000/svg">
<path d="M18.78 27.05H11.22C8.17359 27.05 6.31423 26.4343 5.18999 25.31C4.06574 24.1858 3.45002 22.3264 3.45002 19.28V11.72C3.45002 8.67355 4.06574 6.8142 5.18999 5.68996C6.31423 4.56571 8.17359 3.94999 11.22 3.94999H18.78C21.8265 3.94999 23.6858 4.56571 24.8101 5.68996C25.9343 6.8142 26.55 8.67355 26.55 11.72V19.28C26.55 22.3264 25.9343 24.1858 24.8101 25.31C23.6858 26.4343 21.8265 27.05 18.78 27.05Z" stroke="#0085FF" stroke-width="2.1" stroke-linecap="round" stroke-linejoin="round"/>
<path d="M9.3302 20.5401V10.4601H11.8502C13.2362 10.4601 14.3702 11.5941 14.3702 12.9801C14.3702 14.3661 13.2362 15.5001 11.8502 15.5001H9.3302" stroke="#0085FF" stroke-width="1.62" stroke-miterlimit="10" stroke-linecap="round" stroke-linejoin="round"/>
<path d="M20.6703 14.2403H19.0323C18.1503 14.2403 17.5203 14.9963 17.5203 15.7523C17.5203 16.6343 18.2763 17.2643 19.0323 17.2643C19.9143 17.2643 20.5443 18.0203 20.5443 18.7763C20.5443 19.6583 19.7883 20.2883 19.0323 20.2883H17.5203" stroke="#0085FF" stroke-width="1.62" stroke-miterlimit="10" stroke-linecap="round" stroke-linejoin="round"/>
</svg>
