<svg width="24" height="24" viewBox="0 0 24 24" fill="none" xmlns="http://www.w3.org/2000/svg">
<path d="M17 2H7C4.23858 2 2 4.23858 2 7V17C2 19.7614 4.23858 22 7 22H17C19.7614 22 22 19.7614 22 17V7C22 4.23858 19.7614 2 17 2Z" stroke="#FF6C6C" stroke-width="2" stroke-linecap="round" stroke-linejoin="round"/>
<path d="M18.6429 15.7358C18.1552 16.0327 16.1711 16.121 15.6909 15.782C15.4275 15.5961 15.1866 15.3634 14.9577 15.1421C14.7979 14.9872 14.6161 14.912 14.4787 14.744C14.3667 14.6063 14.2897 14.4441 14.1714 14.3087C13.972 14.0809 13.6648 13.8871 13.4216 14.1654C13.0558 14.5838 13.4793 15.4063 12.9914 15.7191C12.8277 15.8242 12.6627 15.8545 12.4583 15.8395L12.0055 15.8596C11.7393 15.8647 11.318 15.8669 11.0156 15.8138C10.6778 15.7548 10.3993 15.5755 10.0944 15.4438C9.51496 15.1942 8.96277 14.8541 8.54279 14.3828C7.39982 13.0995 5.86446 11.3344 5.26808 9.72091C5.14514 9.38935 4.82147 8.73317 5.12854 8.44869C5.5462 8.15389 7.59687 8.07043 7.91649 8.5267C8.04658 8.71179 8.12841 8.98353 8.22028 9.19338C8.33454 9.45517 8.39669 9.70215 8.57541 9.93394C8.73367 10.1397 8.85063 10.3463 8.97319 10.5719C9.1108 10.8249 9.2405 11.0676 9.40784 11.3007C9.52133 11.4591 9.82145 11.774 10.011 11.7976C10.4738 11.8552 10.4449 10.7623 10.4105 10.4952C10.3777 10.2381 10.369 9.96545 10.3777 9.70459C10.3852 9.48218 10.4059 9.16881 10.2702 8.98709C10.0492 8.69079 9.55703 8.91264 9.51843 8.51451C9.59988 8.40143 9.58251 8.3011 10.1256 8.12744C10.5531 7.99073 10.8293 7.99504 11.1113 8.01699C11.6865 8.06181 12.2962 7.91047 12.851 8.09162C13.381 8.26509 13.2992 8.99703 13.2814 9.43586C13.2577 10.035 13.283 10.6196 13.2814 11.2274C13.2807 11.5043 13.2695 11.7735 13.6165 11.7511C13.9423 11.7299 13.9753 11.4638 14.1307 11.244C14.347 10.9378 14.5452 10.6274 14.7655 10.3221C15.0621 9.90975 15.1515 9.44636 15.4307 9.02385C15.5307 8.87251 15.6166 8.54226 15.7704 8.42281C15.887 8.3326 16.1082 8.37124 16.2491 8.37124H16.5841C16.8408 8.37424 17.1026 8.3778 17.366 8.3868C17.7456 8.39955 18.1708 8.31948 18.5474 8.37105C20.1717 8.59384 16.5058 11.97 16.6965 12.5723C16.8285 12.9883 17.6646 13.4543 17.9664 13.7952C18.3689 14.2487 19.6024 15.1524 18.6429 15.7358Z" fill="#FF6C6C"/>
</svg>
