<svg width="24" height="25" viewBox="0 0 24 25" fill="none" xmlns="http://www.w3.org/2000/svg">
<path d="M17 2.5H7C4.23858 2.5 2 4.73858 2 7.5V17.5C2 20.2614 4.23858 22.5 7 22.5H17C19.7614 22.5 22 20.2614 22 17.5V7.5C22 4.73858 19.7614 2.5 17 2.5Z" stroke="#0085FF" stroke-width="2" stroke-linecap="round" stroke-linejoin="round"/>
<path d="M18.6429 16.2358C18.1552 16.5327 16.1711 16.621 15.6909 16.282C15.4275 16.0961 15.1866 15.8634 14.9577 15.6421C14.7979 15.4872 14.6161 15.412 14.4787 15.244C14.3667 15.1063 14.2897 14.9441 14.1714 14.8087C13.972 14.5809 13.6648 14.3871 13.4216 14.6654C13.0558 15.0838 13.4793 15.9063 12.9914 16.2191C12.8277 16.3242 12.6627 16.3545 12.4583 16.3395L12.0055 16.3596C11.7393 16.3647 11.318 16.3669 11.0156 16.3138C10.6778 16.2548 10.3993 16.0755 10.0944 15.9438C9.51496 15.6942 8.96277 15.3541 8.54279 14.8828C7.39982 13.5995 5.86446 11.8344 5.26808 10.2209C5.14514 9.88935 4.82147 9.23317 5.12854 8.94869C5.5462 8.65389 7.59687 8.57043 7.91649 9.0267C8.04658 9.21179 8.12841 9.48353 8.22028 9.69338C8.33454 9.95517 8.39669 10.2022 8.57541 10.4339C8.73367 10.6397 8.85063 10.8463 8.97319 11.0719C9.1108 11.3249 9.2405 11.5676 9.40784 11.8007C9.52133 11.9591 9.82145 12.274 10.011 12.2976C10.4738 12.3552 10.4449 11.2623 10.4105 10.9952C10.3777 10.7381 10.369 10.4654 10.3777 10.2046C10.3852 9.98218 10.4059 9.66881 10.2702 9.48709C10.0492 9.19079 9.55703 9.41264 9.51843 9.01451C9.59988 8.90143 9.58251 8.8011 10.1256 8.62744C10.5531 8.49073 10.8293 8.49504 11.1113 8.51699C11.6865 8.56181 12.2962 8.41047 12.851 8.59162C13.381 8.76509 13.2992 9.49703 13.2814 9.93586C13.2577 10.535 13.283 11.1196 13.2814 11.7274C13.2807 12.0043 13.2695 12.2735 13.6165 12.2511C13.9423 12.2299 13.9753 11.9638 14.1307 11.744C14.347 11.4378 14.5452 11.1274 14.7655 10.8221C15.0621 10.4098 15.1515 9.94636 15.4307 9.52385C15.5307 9.37251 15.6166 9.04226 15.7704 8.92281C15.887 8.8326 16.1082 8.87124 16.2491 8.87124H16.5841C16.8408 8.87424 17.1026 8.8778 17.366 8.8868C17.7456 8.89955 18.1708 8.81948 18.5474 8.87105C20.1717 9.09384 16.5058 12.47 16.6965 13.0723C16.8285 13.4883 17.6646 13.9543 17.9664 14.2952C18.3689 14.7487 19.6024 15.6524 18.6429 16.2358Z" fill="#0085FF"/>
</svg>
