<svg width="30" height="30" viewBox="0 0 30 30" fill="none" xmlns="http://www.w3.org/2000/svg">
<path d="M21.3062 20.7463V9.25174L13.7537 14.999M2.70189 11.5304C2.32427 11.1253 2.31168 10.4923 2.67672 10.0746L4.18722 8.66942C4.43897 8.44155 5.05575 8.34028 5.5089 8.66942L9.81381 11.9735L19.7957 2.79555C20.1985 2.39046 20.8908 2.22589 21.6838 2.64364L26.7188 5.06155C27.1719 5.32739 27.5999 5.74514 27.5999 6.51735V23.6073C27.5999 24.1136 27.2349 24.658 26.8447 24.8732L21.3062 27.5316C20.9034 27.6962 20.1481 27.5443 19.8838 27.2784L9.78864 18.0372L5.5089 21.3286C5.03058 21.6578 4.43897 21.5691 4.18722 21.3286L2.67672 19.9361C2.27392 19.5184 2.32427 18.8348 2.73966 18.417L6.5159 14.999" fill="#FF6C6C"/>
</svg>
