<svg width="30" height="31" viewBox="0 0 30 31" fill="none" xmlns="http://www.w3.org/2000/svg">
<path d="M21.3063 21.2464V9.75183L13.7538 15.4991M2.70202 12.0305C2.32439 11.6254 2.31181 10.9924 2.67684 10.5747L4.18734 9.16951C4.43909 8.94164 5.05587 8.84037 5.50902 9.16951L9.81394 12.4736L19.7958 3.29564C20.1986 2.89055 20.8909 2.72598 21.6839 3.14373L26.7189 5.56164C27.172 5.82748 27.6 6.24524 27.6 7.01745V24.1074C27.6 24.6137 27.235 25.1581 26.8448 25.3733L21.3063 28.0317C20.9035 28.1963 20.1482 28.0444 19.8839 27.7785L9.78876 18.5373L5.50902 21.8287C5.0307 22.1579 4.43909 22.0692 4.18734 21.8287L2.67684 20.4362C2.27404 20.0184 2.32439 19.3348 2.73978 18.9171L6.51602 15.4991" fill="#0085FF"/>
</svg>
